<svg xmlns="http://www.w3.org/2000/svg" xmlns:xlink="http://www.w3.org/1999/xlink" width="1600" zoomAndPan="magnify" viewBox="0 0 1200 374.999991" height="500" preserveAspectRatio="xMidYMid meet" version="1.0"><defs><g/><clipPath id="344cab267a"><path d="M 797.289062 228.417969 L 812.363281 228.417969 L 812.363281 262 L 797.289062 262 Z M 797.289062 228.417969 " clip-rule="nonzero"/></clipPath><clipPath id="5bed1731f4"><path d="M 744.132812 112.769531 L 859.261719 112.769531 L 859.261719 170 L 744.132812 170 Z M 744.132812 112.769531 " clip-rule="nonzero"/></clipPath><clipPath id="257ba29580"><path d="M 761.382812 112.769531 L 841.992188 112.769531 C 851.515625 112.769531 859.238281 120.492188 859.238281 130.015625 L 859.238281 152.652344 C 859.238281 162.179688 851.515625 169.898438 841.992188 169.898438 L 761.382812 169.898438 C 751.855469 169.898438 744.132812 162.179688 744.132812 152.652344 L 744.132812 130.015625 C 744.132812 120.492188 751.855469 112.769531 761.382812 112.769531 Z M 761.382812 112.769531 " clip-rule="nonzero"/></clipPath></defs><rect x="-120" width="1440" fill="#ffffff" y="-37.499999" height="449.999989" fill-opacity="1"/><rect x="-120" width="1440" fill="#00a3e0" y="-37.499999" height="449.999989" fill-opacity="1"/><g fill="#ffffff" fill-opacity="1"><g transform="translate(879.525725, 175.762763)"><g><path d="M 47.8125 -64.03125 L 47.8125 0 L 37.453125 0 L 35.703125 -3.765625 C 34.359375 -2.367188 32.5 -1.21875 30.125 -0.3125 C 27.757812 0.59375 25.289062 1.046875 22.71875 1.046875 C 19.613281 1.046875 16.742188 0.445312 14.109375 -0.75 C 11.484375 -1.945312 9.21875 -3.582031 7.3125 -5.65625 C 5.414062 -7.726562 3.925781 -10.15625 2.84375 -12.9375 C 1.769531 -15.71875 1.234375 -18.6875 1.234375 -21.84375 C 1.234375 -25 1.769531 -27.960938 2.84375 -30.734375 C 3.925781 -33.515625 5.414062 -35.941406 7.3125 -38.015625 C 9.21875 -40.097656 11.484375 -41.738281 14.109375 -42.9375 C 16.742188 -44.132812 19.613281 -44.734375 22.71875 -44.734375 C 25.46875 -44.734375 27.910156 -44.410156 30.046875 -43.765625 C 32.179688 -43.128906 34.066406 -42.050781 35.703125 -40.53125 L 35.703125 -64.03125 Z M 35.703125 -21.671875 C 35.703125 -23.953125 35.410156 -25.863281 34.828125 -27.40625 C 34.242188 -28.957031 33.425781 -30.210938 32.375 -31.171875 C 31.320312 -32.140625 30.109375 -32.84375 28.734375 -33.28125 C 27.359375 -33.726562 25.878906 -33.953125 24.296875 -33.953125 C 22.710938 -33.953125 21.234375 -33.628906 19.859375 -32.984375 C 18.492188 -32.335938 17.296875 -31.472656 16.265625 -30.390625 C 15.242188 -29.304688 14.441406 -28.019531 13.859375 -26.53125 C 13.273438 -25.039062 12.984375 -23.476562 12.984375 -21.84375 C 12.984375 -20.144531 13.273438 -18.5625 13.859375 -17.09375 C 14.441406 -15.632812 15.242188 -14.363281 16.265625 -13.28125 C 17.296875 -12.207031 18.492188 -11.347656 19.859375 -10.703125 C 21.234375 -10.054688 22.710938 -9.734375 24.296875 -9.734375 C 27.453125 -9.734375 30.125 -10.710938 32.3125 -12.671875 C 34.507812 -14.628906 35.640625 -17.628906 35.703125 -21.671875 Z M 35.703125 -21.671875 "/></g></g></g><g fill="#ffffff" fill-opacity="1"><g transform="translate(929.52326, 175.762763)"><g><path d="M 49.46875 -43.515625 L 49.46875 0 L 39.03125 0 L 37.8125 -4.65625 C 36.113281 -2.375 34.078125 -0.851562 31.703125 -0.09375 C 29.335938 0.664062 26.867188 1.046875 24.296875 1.046875 C 21.203125 1.046875 18.351562 0.445312 15.75 -0.75 C 13.144531 -1.945312 10.875 -3.582031 8.9375 -5.65625 C 7.007812 -7.726562 5.503906 -10.15625 4.421875 -12.9375 C 3.347656 -15.71875 2.8125 -18.6875 2.8125 -21.84375 C 2.8125 -25 3.347656 -27.960938 4.421875 -30.734375 C 5.503906 -33.515625 7.007812 -35.941406 8.9375 -38.015625 C 10.875 -40.097656 13.144531 -41.738281 15.75 -42.9375 C 18.351562 -44.132812 21.203125 -44.734375 24.296875 -44.734375 C 27.109375 -44.734375 29.679688 -44.296875 32.015625 -43.421875 C 34.359375 -42.546875 36.289062 -41.140625 37.8125 -39.203125 L 39.03125 -43.515625 Z M 37.375 -21.671875 C 37.375 -23.953125 37.066406 -25.863281 36.453125 -27.40625 C 35.835938 -28.957031 35.015625 -30.210938 33.984375 -31.171875 C 32.960938 -32.140625 31.765625 -32.84375 30.390625 -33.28125 C 29.015625 -33.726562 27.539062 -33.953125 25.96875 -33.953125 C 24.382812 -33.953125 22.90625 -33.628906 21.53125 -32.984375 C 20.15625 -32.335938 18.941406 -31.472656 17.890625 -30.390625 C 16.835938 -29.304688 16.019531 -28.019531 15.4375 -26.53125 C 14.851562 -25.039062 14.5625 -23.476562 14.5625 -21.84375 C 14.5625 -20.144531 14.851562 -18.5625 15.4375 -17.09375 C 16.019531 -15.632812 16.835938 -14.363281 17.890625 -13.28125 C 18.941406 -12.207031 20.15625 -11.347656 21.53125 -10.703125 C 22.90625 -10.054688 24.382812 -9.734375 25.96875 -9.734375 C 29.125 -9.734375 31.796875 -10.710938 33.984375 -12.671875 C 36.179688 -14.628906 37.3125 -17.628906 37.375 -21.671875 Z M 37.375 -21.671875 "/></g></g></g><g fill="#ffffff" fill-opacity="1"><g transform="translate(981.099679, 175.762763)"><g><path d="M 17.109375 0 L 5 0 L 5 -43.515625 L 17.109375 -43.515625 Z M 11.046875 -49.46875 C 9.179688 -49.46875 7.601562 -50.109375 6.3125 -51.390625 C 5.03125 -52.679688 4.390625 -54.265625 4.390625 -56.140625 C 4.390625 -58.015625 5.03125 -59.609375 6.3125 -60.921875 C 7.601562 -62.234375 9.179688 -62.890625 11.046875 -62.890625 C 12.921875 -62.890625 14.5 -62.234375 15.78125 -60.921875 C 17.070312 -59.609375 17.71875 -58.015625 17.71875 -56.140625 C 17.71875 -54.265625 17.070312 -52.679688 15.78125 -51.390625 C 14.5 -50.109375 12.921875 -49.46875 11.046875 -49.46875 Z M 11.046875 -49.46875 "/></g></g></g><g fill="#ffffff" fill-opacity="1"><g transform="translate(1001.537267, 175.762763)"><g><path d="M 4.296875 -64.125 L 16.40625 -64.125 L 16.40625 0 L 4.296875 0 Z M 4.296875 -64.125 "/></g></g></g><g fill="#ffffff" fill-opacity="1"><g transform="translate(1019.694259, 175.762763)"><g><path d="M 37.546875 -43.515625 L 50.796875 -43.515625 L 23.328125 17.375 L 10.09375 17.375 L 20.875 -6.578125 L 2.453125 -43.515625 L 15.96875 -43.515625 L 27.28125 -20.796875 Z M 37.546875 -43.515625 "/></g></g></g><g fill="#ffffff" fill-opacity="1"><g transform="translate(879.525725, 251.318072)"><g><path d="M 47.8125 -64.03125 L 47.8125 0 L 37.453125 0 L 35.703125 -3.765625 C 34.359375 -2.367188 32.5 -1.21875 30.125 -0.3125 C 27.757812 0.59375 25.289062 1.046875 22.71875 1.046875 C 19.613281 1.046875 16.742188 0.445312 14.109375 -0.75 C 11.484375 -1.945312 9.21875 -3.582031 7.3125 -5.65625 C 5.414062 -7.726562 3.925781 -10.15625 2.84375 -12.9375 C 1.769531 -15.71875 1.234375 -18.6875 1.234375 -21.84375 C 1.234375 -25 1.769531 -27.960938 2.84375 -30.734375 C 3.925781 -33.515625 5.414062 -35.941406 7.3125 -38.015625 C 9.21875 -40.097656 11.484375 -41.738281 14.109375 -42.9375 C 16.742188 -44.132812 19.613281 -44.734375 22.71875 -44.734375 C 25.46875 -44.734375 27.910156 -44.410156 30.046875 -43.765625 C 32.179688 -43.128906 34.066406 -42.050781 35.703125 -40.53125 L 35.703125 -64.03125 Z M 35.703125 -21.671875 C 35.703125 -23.953125 35.410156 -25.863281 34.828125 -27.40625 C 34.242188 -28.957031 33.425781 -30.210938 32.375 -31.171875 C 31.320312 -32.140625 30.109375 -32.84375 28.734375 -33.28125 C 27.359375 -33.726562 25.878906 -33.953125 24.296875 -33.953125 C 22.710938 -33.953125 21.234375 -33.628906 19.859375 -32.984375 C 18.492188 -32.335938 17.296875 -31.472656 16.265625 -30.390625 C 15.242188 -29.304688 14.441406 -28.019531 13.859375 -26.53125 C 13.273438 -25.039062 12.984375 -23.476562 12.984375 -21.84375 C 12.984375 -20.144531 13.273438 -18.5625 13.859375 -17.09375 C 14.441406 -15.632812 15.242188 -14.363281 16.265625 -13.28125 C 17.296875 -12.207031 18.492188 -11.347656 19.859375 -10.703125 C 21.234375 -10.054688 22.710938 -9.734375 24.296875 -9.734375 C 27.453125 -9.734375 30.125 -10.710938 32.3125 -12.671875 C 34.507812 -14.628906 35.640625 -17.628906 35.703125 -21.671875 Z M 35.703125 -21.671875 "/></g></g></g><g fill="#ffffff" fill-opacity="1"><g transform="translate(929.52326, 251.318072)"><g><path d="M 17.109375 0 L 5 0 L 5 -43.515625 L 17.109375 -43.515625 Z M 11.046875 -49.46875 C 9.179688 -49.46875 7.601562 -50.109375 6.3125 -51.390625 C 5.03125 -52.679688 4.390625 -54.265625 4.390625 -56.140625 C 4.390625 -58.015625 5.03125 -59.609375 6.3125 -60.921875 C 7.601562 -62.234375 9.179688 -62.890625 11.046875 -62.890625 C 12.921875 -62.890625 14.5 -62.234375 15.78125 -60.921875 C 17.070312 -59.609375 17.71875 -58.015625 17.71875 -56.140625 C 17.71875 -54.265625 17.070312 -52.679688 15.78125 -51.390625 C 14.5 -50.109375 12.921875 -49.46875 11.046875 -49.46875 Z M 11.046875 -49.46875 "/></g></g></g><g fill="#ffffff" fill-opacity="1"><g transform="translate(949.960848, 251.318072)"><g><path d="M 49.46875 -43.515625 L 49.46875 0 L 39.03125 0 L 37.8125 -4.65625 C 36.113281 -2.375 34.078125 -0.851562 31.703125 -0.09375 C 29.335938 0.664062 26.867188 1.046875 24.296875 1.046875 C 21.203125 1.046875 18.351562 0.445312 15.75 -0.75 C 13.144531 -1.945312 10.875 -3.582031 8.9375 -5.65625 C 7.007812 -7.726562 5.503906 -10.15625 4.421875 -12.9375 C 3.347656 -15.71875 2.8125 -18.6875 2.8125 -21.84375 C 2.8125 -25 3.347656 -27.960938 4.421875 -30.734375 C 5.503906 -33.515625 7.007812 -35.941406 8.9375 -38.015625 C 10.875 -40.097656 13.144531 -41.738281 15.75 -42.9375 C 18.351562 -44.132812 21.203125 -44.734375 24.296875 -44.734375 C 27.109375 -44.734375 29.679688 -44.296875 32.015625 -43.421875 C 34.359375 -42.546875 36.289062 -41.140625 37.8125 -39.203125 L 39.03125 -43.515625 Z M 37.375 -21.671875 C 37.375 -23.953125 37.066406 -25.863281 36.453125 -27.40625 C 35.835938 -28.957031 35.015625 -30.210938 33.984375 -31.171875 C 32.960938 -32.140625 31.765625 -32.84375 30.390625 -33.28125 C 29.015625 -33.726562 27.539062 -33.953125 25.96875 -33.953125 C 24.382812 -33.953125 22.90625 -33.628906 21.53125 -32.984375 C 20.15625 -32.335938 18.941406 -31.472656 17.890625 -30.390625 C 16.835938 -29.304688 16.019531 -28.019531 15.4375 -26.53125 C 14.851562 -25.039062 14.5625 -23.476562 14.5625 -21.84375 C 14.5625 -20.144531 14.851562 -18.5625 15.4375 -17.09375 C 16.019531 -15.632812 16.835938 -14.363281 17.890625 -13.28125 C 18.941406 -12.207031 20.15625 -11.347656 21.53125 -10.703125 C 22.90625 -10.054688 24.382812 -9.734375 25.96875 -9.734375 C 29.125 -9.734375 31.796875 -10.710938 33.984375 -12.671875 C 36.179688 -14.628906 37.3125 -17.628906 37.375 -21.671875 Z M 37.375 -21.671875 "/></g></g></g><g fill="#ffffff" fill-opacity="1"><g transform="translate(1001.537267, 251.318072)"><g><path d="M 15.875 -37.453125 C 16.457031 -38.390625 17.128906 -39.28125 17.890625 -40.125 C 18.648438 -40.976562 19.554688 -41.738281 20.609375 -42.40625 C 21.660156 -43.082031 22.859375 -43.625 24.203125 -44.03125 C 25.554688 -44.445312 27.078125 -44.65625 28.765625 -44.65625 C 30.753906 -44.65625 33.066406 -44.300781 35.703125 -43.59375 L 34.5625 -32.8125 C 33.914062 -32.925781 33.269531 -33.070312 32.625 -33.25 C 32.101562 -33.363281 31.519531 -33.460938 30.875 -33.546875 C 30.226562 -33.640625 29.644531 -33.6875 29.125 -33.6875 C 27.25 -33.6875 25.503906 -33.421875 23.890625 -32.890625 C 22.285156 -32.367188 20.898438 -31.640625 19.734375 -30.703125 C 18.566406 -29.765625 17.628906 -28.632812 16.921875 -27.3125 C 16.222656 -26 15.875 -24.582031 15.875 -23.0625 L 15.875 0 L 3.765625 0 L 3.765625 -43.515625 L 14.734375 -43.515625 Z M 15.875 -37.453125 "/></g></g></g><g fill="#ffffff" fill-opacity="1"><g transform="translate(1035.921532, 251.318072)"><g><path d="M 37.546875 -43.515625 L 50.796875 -43.515625 L 23.328125 17.375 L 10.09375 17.375 L 20.875 -6.578125 L 2.453125 -43.515625 L 15.96875 -43.515625 L 27.28125 -20.796875 Z M 37.546875 -43.515625 "/></g></g></g><path stroke-linecap="butt" transform="matrix(1.370549, 0, 0, 1.370549, 744.200942, 184.166868)" fill="none" stroke-linejoin="miter" d="M 77.516725 40.846094 L 21.423211 40.846094 C 16.273016 40.846094 11.330881 38.799696 7.688408 35.157223 C 4.045935 31.51475 1.999538 26.575466 1.999538 21.422421 C 1.999538 16.272226 4.045935 11.330091 7.688408 7.687618 C 11.330881 4.045145 16.273016 1.998748 21.423211 1.998748 L 77.228862 1.998748 " stroke="#ffffff" stroke-width="4" stroke-opacity="1" stroke-miterlimit="4"/><path stroke-linecap="round" transform="matrix(1.370549, 0, 0, 1.370549, 773.796228, 198.707053)" fill="none" stroke-linejoin="miter" d="M 2.001267 2.000779 L 53.63717 2.000779 " stroke="#ffffff" stroke-width="4" stroke-opacity="1" stroke-miterlimit="4"/><path stroke-linecap="round" transform="matrix(1.370549, 0, 0, 1.370549, 774.189108, 211.110661)" fill="none" stroke-linejoin="miter" d="M 1.999622 1.999857 L 53.635525 1.999857 " stroke="#ffffff" stroke-width="4" stroke-opacity="1" stroke-miterlimit="4"/><path stroke-linecap="round" transform="matrix(1.370549, 0, 0, 1.370549, 774.189108, 222.867086)" fill="none" stroke-linejoin="miter" d="M 1.999622 2.000869 L 53.635525 2.000869 " stroke="#ffffff" stroke-width="4" stroke-opacity="1" stroke-miterlimit="4"/><path stroke-linecap="butt" transform="matrix(1.370549, -0.000000000000009518, 0.000000000000009518, 1.370549, 797.287882, 237.407284)" fill="none" stroke-linejoin="miter" d="M 0.000861301 2.000041 L 8.126597 2.000041 " stroke="#00a3e0" stroke-width="4" stroke-opacity="1" stroke-miterlimit="4"/><g clip-path="url(#344cab267a)"><path fill="#ffffff" d="M 812.4375 228.851562 L 812.4375 260.84375 C 812.4375 261.59375 811.941406 261.847656 811.335938 261.414062 L 805.960938 257.5625 C 805.359375 257.132812 804.367188 257.132812 803.761719 257.5625 L 798.390625 261.414062 C 797.785156 261.847656 797.289062 261.59375 797.289062 260.84375 L 797.289062 228.851562 Z M 812.4375 228.851562 " fill-opacity="1" fill-rule="nonzero"/></g><g clip-path="url(#5bed1731f4)"><g clip-path="url(#257ba29580)"><path stroke-linecap="butt" transform="matrix(1.370549, 0, 0, 1.370549, 744.13403, 112.768521)" fill="none" stroke-linejoin="miter" d="M 12.585311 0.000736825 L 71.40071 0.000736825 C 78.349341 0.000736825 83.984059 5.635455 83.984059 12.584086 L 83.984059 29.100622 C 83.984059 36.052103 78.349341 41.683971 71.40071 41.683971 L 12.585311 41.683971 C 5.63383 41.683971 -0.000887991 36.052103 -0.000887991 29.100622 L -0.000887991 12.584086 C -0.000887991 5.635455 5.63383 0.000736825 12.585311 0.000736825 Z M 12.585311 0.000736825 " stroke="#ffffff" stroke-width="4.377808" stroke-opacity="1" stroke-miterlimit="4"/></g></g><path stroke-linecap="round" transform="matrix(0.00000000239206, -1.370549, 1.370549, 0.00000000239206, 801.688906, 180.559368)" fill="none" stroke-linejoin="miter" d="M 2.00136 1.999769 L 3.147115 1.999769 " stroke="#ffffff" stroke-width="4" stroke-opacity="1" stroke-miterlimit="4"/></svg>